# xmcd
#
# Track frame offsets:
#	150
#	22290
#	47354
#	72826
#	91736
#	107754
#	128122
#	152499
#	194033
#	217752
#	233665
#	248879
#
# Disc length: 3585 seconds
#
# Revision: 1
# Processed by: cddbd v1.4PL0 Copyright (c) Steve Scherf et al.
# Submitted via: audiograbber 1.82.02
#
DISCID=9a0dff0c
DTITLE=John McGale - John McGale and Les amis du diable
DYEAR=2003
DGENRE=Blues
TTITLE0=Jimmy James and Robby Bolduc - Lay down Sally
TTITLE1=Gina Seram - Rock me
TTITLE2=Jerry Mercer and Breen Leboeuf - Blue suede shoes
TTITLE3=Pete Dogg - Riverboat fantasy
TTITLE4=Nelson Carter - Spooky
TTITLE5=Mannix and the Buzz band - Superstition
TTITLE6=Jonathan Moorman - Fiddle session
TTITLE7=Eric Kayah - Chicken Cordon blues
TTITLE8=Jim Zeller - That's alright mama
TTITLE9=Angel Forrest - Brother Louis
TTITLE10=Jonathan Moorman - Hooked on a feeling
TTITLE11=Nelson Carter - Green green grass of home
EXTD=
EXTT0=
EXTT1=
EXTT2=
EXTT3=
EXTT4=
EXTT5=
EXTT6=
EXTT7=
EXTT8=
EXTT9=
EXTT10=
EXTT11=
PLAYORDER=
